<?xml version="1.0" encoding="UTF-8"?>
<svg width="283px" height="45px" viewBox="0 0 283 45" version="1.1" xmlns="http://www.w3.org/2000/svg" xmlns:xlink="http://www.w3.org/1999/xlink">
    <title>CCM_logo</title>
    <g id="Batch-1-Templates" stroke="none" stroke-width="1" fill="none" fill-rule="evenodd">
        <g id="Home-White-1400-V1" transform="translate(-48, -69)" fill="#231F20" fill-rule="nonzero">
            <g id="CCM_logo" transform="translate(0, 40)">
                <g transform="translate(48, 29.1217)">
                    <g transform="translate(0, -0)">
                        <path d="M21.8619895,44 C9.80730197,44 0,34.1455767 0,22.0327606 C0,9.91994448 9.80730197,0.0655212212 21.8619895,0.0655212212 C33.9166769,0.0655212212 43.7239789,9.91994448 43.7239789,22.0327606 C43.7239789,34.1455767 33.9166769,44 21.8619895,44 Z M21.8619895,1.04879372 C10.3468651,1.04879372 0.97857075,10.4621 0.97857075,22.0327606 C0.97857075,33.6034212 10.3468651,43.0163089 21.8619895,43.0163089 C33.3771139,43.0163089 42.7454082,33.603208 42.7454082,22.0327606 C42.7454082,10.4623133 33.3771139,1.04879372 21.8619895,1.04879372 Z" id="Shape"></path>
                        <g id="Group" transform="translate(53.3255, 0)">
                            <path d="M0,10.764015 C0,4.18766306 4.98945894,0 10.8889437,0 C13.9413109,0 17.4046688,1.1206301 19.5471792,4.8660032 L15.8197155,7.43177314 C14.7337895,5.8097181 13.0607996,4.9249723 11.0063258,4.9249723 C7.89510638,4.9249723 5.3124209,7.10742533 5.3124209,10.764011 C5.3124209,14.4798976 7.95395858,16.6035474 11.0650129,16.6035474 C13.1781778,16.6035474 14.7337856,15.7186397 15.8197155,14.0670981 L19.5471792,16.6625205 C17.4046688,20.4077277 13.9119654,21.5281919 10.8595982,21.5281919 C4.96011342,21.5281919 0,17.3406947 0,10.764011 L0,10.764015 Z" id="Path"></path>
                            <path d="M28.734778,14.6571485 L26.7096497,14.6571485 L26.7096497,21.2333346 L21.5439564,21.2333346 L21.5439564,0.294857344 L29.3218458,0.294857344 C33.7829319,0.294857344 36.9235008,3.09651553 36.9235008,7.63817486 C36.9235008,10.5281267 35.6026494,12.6219583 33.460139,13.7427543 L38.126805,21.2333346 L32.6676604,21.2333346 L28.7347819,14.6571485 L28.734778,14.6571485 Z M28.8228146,10.2332694 C30.4371134,10.2332694 31.6991126,9.70251987 31.6991126,7.63817486 C31.6991126,5.6031505 30.4371173,5.04291839 28.8228146,5.04291839 L26.7096497,5.04291839 L26.7096497,10.2332694 L28.8228146,10.2332694 L28.8228146,10.2332694 Z" id="Shape"></path>
                            <path d="M38.5092756,10.764015 C38.5092756,4.36457826 43.4107019,0 49.3688737,0 C55.297535,0 60.1989613,4.36457826 60.1989613,10.764015 C60.1989613,17.1637835 55.297535,21.5281959 49.3688737,21.5281959 C43.4107019,21.5281959 38.5092756,17.1637835 38.5092756,10.764015 Z M49.3688737,16.6035514 C52.4212409,16.6035514 54.8867094,14.3324729 54.8867094,10.764015 C54.8867094,7.19588885 52.4212409,4.92497625 49.3688737,4.92497625 C46.2869959,4.92497625 43.8216965,7.19588885 43.8216965,10.764015 C43.8216965,14.3324729 46.2869998,16.6035514 49.3688737,16.6035514 Z" id="Shape"></path>
                            <path d="M60.8750443,16.2493892 L65.042687,14.3029864 C65.6297508,15.5122419 66.5689531,16.8689222 68.3886667,16.8689222 C69.5919748,16.8689222 70.6779008,16.2788718 70.6779008,14.8635502 C70.6779008,13.8606964 70.2083803,13.3594373 68.3593212,12.6219583 L67.0678153,12.1206992 C64.3675866,11.0297215 61.6380162,9.52560862 61.6380162,5.95715072 C61.6380162,2.24126415 64.7492357,3.94944072e-06 68.4180122,3.94944072e-06 C72.1161304,3.94944072e-06 74.4053645,2.27075068 75.4326034,4.48252435 L71.6171031,6.66497738 C70.7072464,5.13137797 69.709353,4.57097998 68.623427,4.57097998 C67.537501,4.57097998 66.7156769,5.04291839 66.7156769,6.04560635 C66.7156769,6.81240605 67.1558519,7.43177709 69.269178,8.25738002 L70.6779008,8.81761214 C74.5227466,10.3806981 76.0490089,12.1206953 76.0490089,14.9225233 C76.0490089,19.4343643 72.0279287,21.5281959 68.4766994,21.5281959 C64.7785812,21.5281959 61.6673578,19.3164222 60.8750443,16.2493892 L60.8750443,16.2493892 Z" id="Path"></path>
                            <path d="M77.1651019,16.2493892 L81.3327446,14.3029864 C81.9198084,15.5122419 82.8590107,16.8689222 84.6787243,16.8689222 C85.8820324,16.8689222 86.9679584,16.2788718 86.9679584,14.8635502 C86.9679584,13.8606964 86.4984378,13.3594373 84.6493787,12.6219583 L83.3578729,12.1206992 C80.6576441,11.0297215 77.9280738,9.52560862 77.9280738,5.95715072 C77.9280738,2.24126415 81.0392932,3.94944072e-06 84.7080698,3.94944072e-06 C88.406188,3.94944072e-06 90.6954221,2.27075068 91.722661,4.48252435 L87.9071607,6.66497738 C86.9973039,5.13137797 85.9994106,4.57097998 84.9134846,4.57097998 C83.8275585,4.57097998 83.0057344,5.04291839 83.0057344,6.04560635 C83.0057344,6.81240605 83.4459095,7.43177709 85.5592355,8.25738002 L86.9679584,8.81761214 C90.8128042,10.3806981 92.3390664,12.1206953 92.3390664,14.9225233 C92.3390664,19.4343643 88.3179863,21.5281959 84.7667569,21.5281959 C81.0686387,21.5281959 77.9574154,19.3164222 77.1651019,16.2493892 L77.1651019,16.2493892 Z" id="Path"></path>
                            <path d="M93.7487798,10.764015 C93.7487798,4.18766306 98.7382388,0 104.637723,0 C107.690091,0 111.153449,1.1206301 113.295959,4.8660032 L109.568495,7.43177314 C108.482569,5.8097181 106.809579,4.9249723 104.755106,4.9249723 C101.643886,4.9249723 99.0612007,7.10742533 99.0612007,10.764011 C99.0612007,14.4798976 101.702738,16.6035474 104.813793,16.6035474 C106.926958,16.6035474 108.482565,15.7186397 109.568495,14.0670981 L113.295959,16.6625205 C111.153449,20.4077277 107.660745,21.5281919 104.608378,21.5281919 C98.7088932,21.5281919 93.7487798,17.3406947 93.7487798,10.764011 L93.7487798,10.764015 Z" id="Path"></path>
                            <path d="M114.412551,10.764015 C114.412551,4.36457826 119.313978,0 125.272149,0 C131.200811,0 136.102237,4.36457826 136.102237,10.764015 C136.102237,17.1637835 131.200811,21.5281959 125.272149,21.5281959 C119.313978,21.5281959 114.412551,17.1637835 114.412551,10.764015 Z M125.272149,16.6035514 C128.324517,16.6035514 130.78982,14.3324729 130.78982,10.764015 C130.78982,7.19588885 128.324517,4.92497625 125.272149,4.92497625 C122.190272,4.92497625 119.724972,7.19588885 119.724972,10.764015 C119.724972,14.3324729 122.190275,16.6035514 125.272149,16.6035514 Z" id="Shape"></path>
                            <path d="M138.392623,13.2120087 L138.392623,0.294857344 L143.55832,0.294857344 L143.55832,13.2414952 C143.55832,16.1904162 145.378033,16.6625244 146.581342,16.6625244 C147.755304,16.6625244 149.575018,16.1904201 149.575018,13.2414952 L149.575018,0.294857344 L154.740711,0.294857344 L154.740711,13.2120087 C154.740711,18.6384099 151.071938,21.5281959 146.581338,21.5281959 C142.061395,21.5281959 138.392623,18.6384099 138.392623,13.2120087 L138.392623,13.2120087 Z" id="Path"></path>
                            <polygon id="Path" points="157.324057 0.294857344 162.48975 0.294857344 170.472889 12.7402322 170.619778 12.7402322 170.619778 0.294857344 175.78531 0.294857344 175.78531 21.2333385 170.619778 21.2333385 162.636474 8.78812956 162.48975 8.78812956 162.48975 21.2333385 157.324057 21.2333385"></polygon>
                            <polygon id="Path" points="182.243335 5.04291839 177.606014 5.04291839 177.606014 0.294857344 192.046022 0.294857344 192.046022 5.04291839 187.408867 5.04291839 187.408867 21.2333385 182.243335 21.2333385"></polygon>
                            <path d="M201.086563,14.6571485 L199.061435,14.6571485 L199.061435,21.2333346 L193.895741,21.2333346 L193.895741,0.294857344 L201.673796,0.294857344 C206.134882,0.294857344 209.275451,3.09651553 209.275451,7.63817486 C209.275451,10.5281267 207.9546,12.6219583 205.812089,13.7427543 L210.47859,21.2333346 L205.019445,21.2333346 L201.086567,14.6571485 L201.086563,14.6571485 Z M201.1746,10.2332694 C202.788898,10.2332694 204.051063,9.70251987 204.051063,7.63817486 C204.051063,5.6031505 202.788902,5.04291839 201.1746,5.04291839 L199.061435,5.04291839 L199.061435,10.2332694 L201.1746,10.2332694 L201.1746,10.2332694 Z" id="Shape"></path>
                            <polygon id="Path" points="216.878089 13.3594373 209.217416 0.294857344 215.058375 0.294857344 219.460774 8.49326827 223.833828 0.294857344 229.674456 0.294857344 222.014114 13.3594373 222.014114 21.2333346 216.878093 21.2333346 216.878093 13.3594373"></polygon>
                        </g>
                        <polygon id="Path" points="55.801727 27.7121788 60.1467517 27.7121788 64.6269639 38.7064501 69.1071762 27.7121788 73.4749549 27.7121788 73.4749549 43.7737207 69.5124007 43.7737207 69.5124007 35.3132526 69.3999672 35.3132526 66.0905849 43.7737207 63.186097 43.7737207 59.8767147 35.3132526 59.7642811 35.3132526 59.7642811 43.7737207 55.801727 43.7737207 55.801727 27.7121788"></polygon>
                        <path d="M75.2316931,35.7429478 C75.2316931,30.8340418 78.9914699,27.4858995 83.5616958,27.4858995 C88.1094978,27.4858995 91.8692746,30.8340418 91.8692746,35.7429478 C91.8692746,40.6518538 88.1094978,43.9999961 83.5616958,43.9999961 C78.9914699,43.9999961 75.2316931,40.6518538 75.2316931,35.7429478 Z M83.5616958,40.2221546 C85.9033557,40.2221546 87.7942869,38.4801669 87.7942869,35.7429478 C87.7942869,33.0057287 85.9033517,31.263741 83.5616958,31.263741 C81.1979462,31.263741 79.3066808,33.0057287 79.3066808,35.7429478 C79.3066808,38.4801669 81.1979462,40.2221546 83.5616958,40.2221546 Z" id="Shape"></path>
                        <path d="M99.1421977,38.7289777 L97.588567,38.7289777 L97.588567,43.7737207 L93.626343,43.7737207 L93.626343,27.7121788 L99.5922659,27.7121788 C103.014412,27.7121788 105.423331,29.861338 105.423331,33.3449817 C105.423331,35.5620555 104.410109,37.1682101 102.766791,38.0279401 L106.34654,43.7737207 L102.158789,43.7737207 L99.1421977,38.7289738 L99.1421977,38.7289777 Z M99.2094613,35.3357802 C100.447881,35.3357802 101.415934,34.9286087 101.415934,33.3449856 C101.415934,31.784218 100.447881,31.3545189 99.2094613,31.3545189 L97.588567,31.3545189 L97.588567,35.3357802 L99.2094613,35.3357802 Z" id="Shape"></path>
                        <polygon id="Path" points="109.746923 31.3545149 106.189923 31.3545149 106.189923 27.7121748 117.266476 27.7121748 117.266476 31.3545149 113.709477 31.3545149 113.709477 43.7737168 109.746923 43.7737168 109.746923 31.3545149"></polygon>
                        <path d="M117.334727,35.7429478 C117.334727,30.6982047 121.229691,27.4858995 125.732323,27.4858995 C128.028809,27.4858995 130.73052,28.3456296 132.373838,31.2186857 L129.51452,33.1866209 C128.681651,31.9425787 127.465981,31.263741 125.799913,31.263741 C123.36857,31.263741 121.409714,32.8927549 121.409714,35.7429478 C121.409714,38.5934724 123.255806,40.3579917 125.777493,40.3579917 C127.21836,40.3579917 128.569217,39.7924594 129.086875,38.0729993 L125.799913,38.0729993 L125.799913,34.7927755 L132.936662,34.7927755 C133.882295,40.5839431 130.144938,44 125.642306,44 C121.162093,44 117.334727,40.7876908 117.334727,35.7429517 L117.334727,35.7429478 Z" id="Path"></path>
                        <path d="M142.595762,27.7121788 L148.629275,43.7737207 L144.35184,43.7737207 L143.563815,41.4890601 L137.395118,41.4890601 L136.607093,43.7737207 L132.306908,43.7737207 L138.340751,27.7121788 L142.595766,27.7121788 L142.595762,27.7121788 Z M142.280551,37.8467201 L140.45688,32.5985571 L138.655958,37.8467201 L142.280551,37.8467201 L142.280551,37.8467201 Z" id="Shape"></path>
                        <path d="M148.134693,35.7429478 C148.134693,30.6982047 152.029657,27.4858995 156.53229,27.4858995 C158.828776,27.4858995 161.530486,28.3456296 163.173804,31.2186857 L160.314486,33.1866209 C159.481617,31.9425787 158.265948,31.263741 156.599879,31.263741 C154.168536,31.263741 152.209681,32.8927549 152.209681,35.7429478 C152.209681,38.5934724 154.055772,40.3579917 156.57746,40.3579917 C158.018327,40.3579917 159.369184,39.7924594 159.886842,38.0729993 L156.599879,38.0729993 L156.599879,34.7927755 L163.736628,34.7927755 C164.682261,40.5839431 160.944904,44 156.442272,44 C151.96206,44 148.134693,40.7876908 148.134693,35.7429517 L148.134693,35.7429478 Z" id="Path"></path>
                        <polygon id="Path" points="165.606134 27.7121788 175.039373 27.7121788 175.039373 31.3545189 169.568688 31.3545189 169.568688 33.8879903 174.11616 33.8879903 174.11616 37.4849394 169.568688 37.4849394 169.568688 40.1317164 175.2194 40.1317164 175.2194 43.7737247 165.606138 43.7737247 165.606138 27.7121827"></polygon>
                        <g id="Group" transform="translate(2.922, 3.1201)">
                            <g id="Path">
                                <path d="M17.3484709,28.163811 C17.3484709,27.9545973 17.2034763,27.7737129 16.9996023,27.7301111 C12.1827026,26.5680671 9.21553413,21.7031737 10.3724696,16.8631263 C11.1589423,13.5682777 13.7196363,10.9957068 16.9996023,10.204152 C17.2052215,10.1636071 17.3518508,9.98096913 17.3484709,9.77087469 L17.3484709,7.28024285 C17.3501057,7.03002998 17.1518995,6.82648371 16.9033351,6.82342289 C16.8803021,6.82342289 16.8573201,6.82429967 16.8343342,6.82821356 C10.1724632,8.0290726 5.74122572,14.4300141 6.93634256,21.1247426 C7.84254393,26.1927597 11.7896746,30.1597359 16.8343342,31.0694106 C17.0737915,31.1099555 17.3015476,30.9478033 17.3418987,30.706769 C17.3466664,30.6801655 17.3484709,30.6535858 17.3484709,30.6265558 L17.3484709,28.1638071 L17.3484709,28.163811 Z"></path>
                                <path d="M17.3484116,34.8419005 C17.3457624,34.6213519 17.1804943,34.4360955 16.9627494,34.4082006 C8.46766733,33.2831906 2.48948501,25.4508257 3.60956755,16.9153537 C4.52662511,9.92249766 10.0033314,4.42032646 16.9627494,3.49801357 C17.1804943,3.47010683 17.3457663,3.28573903 17.3484116,3.06431364 L17.3484116,0.444653578 C17.3449173,0.194894898 17.1401433,-0.00344206471 16.8911544,0 C16.8786041,0 16.8655782,0.000922067255 16.8525524,0.00180279253 C6.43878926,1.18086882 -1.0520752,10.6198978 0.120959783,21.0832695 C1.11262714,29.9225364 8.05552501,36.8988443 16.8525484,37.8952645 C17.0997922,37.9209911 17.3210313,37.7400949 17.3457624,37.4920779 C17.3475115,37.4755179 17.3484116,37.4598189 17.3484116,37.4432589 L17.3484116,34.8419005 Z"></path>
                            </g>
                            <path d="M30.9164258,33.753723 C31.0109478,33.6735256 31.0651738,33.5554018 31.0634797,33.4307338 L31.0634797,10.222592 C31.069517,10.0290733 31.2313419,9.87780184 31.4239352,9.88434607 C31.5276194,9.88782947 31.6243661,9.93752924 31.6876991,10.0199225 C33.4923154,12.6330383 34.4535878,15.7408848 34.441462,18.9210692 L34.441462,28.800374 C34.441462,28.9781975 34.5859217,29.1220441 34.762891,29.1220441 C34.8756823,29.1220441 34.980636,29.0631974 35.0383562,28.9664361 C40.5510742,20.0160161 37.799481,8.2720264 28.8923116,2.73282524 C26.5575734,1.28090025 23.9378896,0.355530499 21.2131971,0.0207680068 C20.9911089,-0.00495864994 20.7906781,0.155439985 20.7659471,0.377742154 C20.764198,0.393437231 20.7633335,0.410013033 20.7633335,0.42656119 L20.7633335,37.443484 C20.7611832,37.667516 20.9411712,37.850154 21.1641595,37.8518996 C21.1811041,37.8518996 21.1975732,37.8510347 21.2131932,37.849293 C22.1211397,37.740324 23.0204036,37.5650952 23.902723,37.3236066 C24.075404,37.2739227 24.1955572,37.1169995 24.1964062,36.9361152 L24.1964062,4.85426731 C24.1964062,4.63020764 24.3772982,4.44844648 24.6002865,4.44759735 C24.6510182,4.44759735 24.7004764,4.45760128 24.7473404,4.47593063 C25.5828468,4.81372235 26.3879582,5.22521062 27.1527735,5.70294287 C27.4694387,5.89952233 27.6546701,6.25170581 27.6390501,6.62525576 L27.6390501,35.2479346 C27.6364559,35.4667534 27.8116801,35.6463305 28.02948,35.6493913 C28.0980014,35.6493913 28.1661022,35.6328155 28.226841,35.5983922 C29.1720689,35.0587643 30.0718084,34.4419881 30.9164258,33.753723" id="Path"></path>
                        </g>
                        <path d="M176.659037,30.2196313 C176.659037,28.7098628 177.780971,27.7572063 179.029653,27.7572063 C180.277974,27.7572063 181.399908,28.7098628 181.399908,30.2196313 C181.399908,31.695557 180.277974,32.6482134 179.029653,32.6482134 C177.780971,32.6482134 176.659037,31.695557 176.659037,30.2196313 Z M179.029653,32.2657694 C180.071188,32.2657694 181.01241,31.4943291 181.01241,30.2196313 C181.01241,28.9110947 180.071192,28.1396504 179.029653,28.1396504 C177.987757,28.1396504 177.046535,28.9110907 177.046535,30.2196313 C177.046535,31.4943291 177.987754,32.2657694 179.029653,32.2657694 Z M178.181506,28.8576035 L179.08941,28.8576035 C179.663774,28.8576035 179.984275,29.2131203 179.984275,29.7163777 C179.984275,30.1657767 179.723892,30.4274153 179.363192,30.5212974 L180.111028,31.5278085 L179.737291,31.5278085 L179.022775,30.5347611 L178.502008,30.5347611 L178.502008,31.5278085 L178.181506,31.5278085 L178.181506,28.8576035 L178.181506,28.8576035 Z M179.06949,30.239647 C179.456987,30.239647 179.663774,30.0718945 179.663774,29.7229259 C179.663774,29.3539455 179.456987,29.1527136 179.06949,29.1527136 L178.495125,29.1527136 L178.495125,30.239647 L179.06949,30.239647 L179.06949,30.239647 Z" id="Shape"></path>
                    </g>
                </g>
            </g>
        </g>
    </g>
</svg>