<?xml version="1.0" encoding="utf-8"?>
<svg version="1.1" x="0px" y="0px" viewBox="0 0 1171.59 309.14" style="enable-background:new 0 0 1171.59 309.14;" xmlns="http://www.w3.org/2000/svg">
  <style type="text/css">
	.st0{fill:#FFFFFF;}
</style>
  <g id="Layer_1">
    <g>
      <g>
        <path class="st0" d="M565.75,78.48h-44.11V97.5h21.48v4.42c0,6.34-1.75,11.53-5.24,15.58c-4.04,4.37-9.46,6.56-16.24,6.56 c-6.34,0-11.2-2.02-14.58-6.06c-3.72-4.37-5.58-15.36-5.58-32.96c0-17.16,1.85-28.09,5.58-32.79c3.6-4.15,8.47-6.23,14.58-6.23 c11.15,0,18.15,5.68,20.99,17.05h22.97c-1.64-10.93-6.02-19.73-13.12-26.4c-7.98-7.32-18.27-10.99-30.84-10.99 c-12.45,0-22.95,4.26-31.48,12.79c-5.03,5.03-8.19,10.88-9.51,17.55c-1.31,6.56-1.96,16.23-1.96,29.02 c0,12.79,0.65,22.46,1.96,29.02c1.32,6.66,4.48,12.51,9.51,17.55c8.53,8.52,19.03,12.78,31.48,12.78 c13.24,0,24.22-4.42,32.96-13.28c7.43-7.87,11.15-19.73,11.15-35.58V78.48z"/>
      </g>
      <rect x="432.62" y="26.67" class="st0" width="23.3" height="116.74"/>
      <polygon class="st0" points="609.86,94.54 649.37,94.54 649.37,143.41 672.16,143.41 672.16,26.67 649.37,26.67 649.37,74.38 &#10;&#9;&#9;&#9;609.86,74.38 609.86,26.67 587.07,26.67 587.07,143.41 609.86,143.41 &#9;&#9;"/>
      <polygon class="st0" points="690.69,26.67 690.69,47 721.18,47 721.18,143.41 743.97,143.41 743.97,47 774.48,47 774.48,26.67 &#9;&#9;&#10;&#9;&#9;&#9;"/>
      <g>
        <path class="st0" d="M195.32,240.6c0,6.66-1.85,11.92-5.58,15.74c-3.6,3.83-8.53,5.74-14.76,5.74c-6.23,0-11.14-1.91-14.76-5.74 c-3.6-3.82-5.4-9.07-5.4-15.74v-74.94h-22.79v75.75c0,12.13,4.15,22.08,12.46,29.84c8.09,7.44,18.25,11.15,30.49,11.15 c12.25,0,22.4-3.71,30.5-11.15c8.3-7.76,12.46-17.71,12.46-29.84v-75.75h-22.63V240.6z"/>
      </g>
      <polygon class="st0" points="314.23,237.15 266.9,165.66 246.08,165.66 246.08,282.4 269.42,282.4 269.42,210.75 316.75,282.4 &#10;&#9;&#9;&#9;337.57,282.4 337.57,165.66 314.23,165.66 &#9;&#9;"/>
      <polygon class="st0" points="432.58,237.15 385.25,165.66 364.43,165.66 364.43,282.4 387.76,282.4 387.76,210.75 435.1,282.4 &#10;&#9;&#9;&#9;455.92,282.4 455.92,165.66 432.58,165.66 &#9;&#9;"/>
      <polygon class="st0" points="482.78,282.4 559.68,282.4 559.68,262.07 505.57,262.07 505.57,233.71 551.65,233.71 551.65,213.38 &#10;&#9;&#9;&#9;505.57,213.38 505.57,185.99 559.68,185.99 559.68,165.66 482.78,165.66 &#9;&#9;"/>
      <g>
        <path class="st0" d="M743.16,213.21l-13.77-1.97c-4.59-0.65-8.19-2.18-10.82-4.59c-2.3-2.18-3.44-4.97-3.44-8.36 c0-4.26,1.48-7.71,4.43-10.33c3.28-2.95,7.82-4.43,13.61-4.43c10.38,0,18.36,2.68,23.94,8.03l14.42-14.26 c-9.39-9.07-21.96-13.61-37.71-13.61c-12.46,0-22.4,3.28-29.84,9.84c-7.22,6.45-10.82,14.98-10.82,25.58 c0,9.73,2.78,17.38,8.35,22.95c5.14,5.03,12.68,8.26,22.63,9.67l14.1,1.97c4.7,0.77,8.14,2.14,10.33,4.1 c2.4,2.29,3.6,5.57,3.6,9.83c0,9.62-6.89,14.43-20.66,14.43c-12.25,0-21.64-3.28-28.21-9.84l-14.76,14.76 c10.17,10.28,24.38,15.41,42.63,15.41c12.57,0,22.84-3.05,30.82-9.18c8.31-6.45,12.46-15.19,12.46-26.23 c0-10.82-3-19.07-9.01-24.76C760.44,217.64,753.01,214.64,743.16,213.21"/>
      </g>
      <rect x="157.31" y="26.67" class="st0" width="23.3" height="116.74"/>
      <g>
        <path class="st0" d="M228.66,123.07V46.84h17.21c7.43,0,13.12,2.4,17.05,7.21c3.39,4.04,5.08,14.21,5.08,30.5 c0,16.83-1.69,27.27-5.08,31.32c-3.9,4.76-9.51,7.16-16.83,7.21H228.66z M246.57,143.41h0.5h0.94c13.22,0,27.01-3.72,34.45-11.15 c5.68-5.79,9.3-13.22,10.82-22.31c0.67-4.04,0.99-12.51,0.99-25.41c0-12.79-0.32-21.15-0.99-25.09 c-1.52-8.75-5.14-16.01-10.82-21.81c-7.43-7.43-21.22-11.15-34.45-11.15h-42.65v116.91h12.59h28.61H246.57z"/>
        <path class="st0" d="M102.92,221.91c4.3-5.62,6.45-12.35,6.45-20.18c0-10.26-3.37-18.75-10.09-25.48 c-7.06-7.06-16.44-10.59-28.13-10.59H25v117.79h23v-97.28h21.67c4.96,0,8.99,1.43,12.08,4.3c3.09,2.87,4.63,6.62,4.63,11.25 c0,4.63-1.55,8.38-4.63,11.25c-3.09,2.87-7.11,4.3-12.08,4.3h-0.83l-13.43-0.04l13.43,27.69v0.15l18.69,38.38h26.64l-26.3-50.79 C94.05,230.46,99.06,226.87,102.92,221.91"/>
        <path class="st0" d="M664.99,221.91c4.3-5.62,6.45-12.35,6.45-20.18c0-10.26-3.37-18.75-10.09-25.48 c-7.06-7.06-16.44-10.59-28.13-10.59h-46.16v117.79h23v-97.28h21.67c4.96,0,8.99,1.43,12.08,4.3c3.09,2.87,4.63,6.62,4.63,11.25 c0,4.63-1.54,8.38-4.63,11.25c-3.09,2.87-7.11,4.3-12.08,4.3h-0.83l-13.43-0.04l13.43,27.69v0.15l18.69,38.38h26.64l-26.3-50.79 C656.11,230.46,661.13,226.87,664.99,221.91"/>
      </g>
      <polygon class="st0" points="106.49,26.67 76.82,89.79 46.97,26.67 25,26.67 25,143.41 47.3,143.41 47.3,75.36 76.74,135.53 &#10;&#9;&#9;&#9;106.18,75.36 106.18,143.41 128.48,143.41 128.48,26.67 &#9;&#9;"/>
      <polygon class="st0" points="381.74,25.68 381.74,97.17 334.41,25.68 313.59,25.68 313.59,142.42 336.92,142.42 336.92,70.77 &#10;&#9;&#9;&#9;384.25,142.42 405.07,142.42 405.07,25.68 &#9;&#9;"/>
      <g>
        <g>
          <g/>
        </g>
      </g>
      <g>
        <g/>
        <g/>
        <g/>
      </g>
    </g>
  </g>
  <g id="Layer_2"/>
</svg>